fd_4_states
version=1
nRows=35
nColumns=17
inDegrees=yes

# SIMM Motion File Header:
name fd_4_states
datacolumns 17
datarows 35
otherdata 1
range 0.707999 0.728219
endheader
time	/jointset/r_shoulder/r_shoulder_elev/value	/jointset/r_shoulder/r_shoulder_elev/speed	/jointset/r_elbow/r_elbow_flex/value	/jointset/r_elbow/r_elbow_flex/speed	/forceset/TRIlong/activation	/forceset/TRIlong/fiber_length	/forceset/TRIlat/activation	/forceset/TRIlat/fiber_length	/forceset/TRImed/activation	/forceset/TRImed/fiber_length	/forceset/BIClong/activation	/forceset/BIClong/fiber_length	/forceset/BICshort/activation	/forceset/BICshort/fiber_length	/forceset/BRA/activation	/forceset/BRA/fiber_length
      0.707999	     -7.717871	    -46.327395	     85.298078	   -282.233701	      0.044363	      0.163427	      0.412915	      0.101474	      0.405482	      0.096537	      0.148634	      0.103241	      0.041336	      0.101952	      0.034515	      0.070201
      0.708626	     -7.746794	    -45.996633	     85.121221	   -282.327658	      0.044148	      0.163352	      0.413161	      0.101414	      0.405660	      0.096476	      0.148165	      0.103404	      0.041150	      0.102112	      0.034391	      0.070264
      0.709252	     -7.775508	    -45.663712	     84.944301	   -282.429962	      0.043934	      0.163277	      0.413394	      0.101353	      0.405828	      0.096416	      0.147701	      0.103567	      0.040964	      0.102270	      0.034267	      0.070342
      0.709793	     -7.800141	    -45.368728	     84.791421	   -282.546014	      0.043752	      0.163212	      0.413585	      0.101301	      0.405966	      0.096364	      0.147305	      0.103708	      0.040806	      0.102408	      0.034161	      0.070393
      0.710049	     -7.811715	    -45.229271	     84.719222	   -282.601525	      0.043666	      0.163182	      0.413582	      0.101276	      0.405939	      0.096339	      0.147119	      0.103775	      0.040731	      0.102472	      0.034114	      0.070422
      0.710273	     -7.821823	    -45.106336	     84.655974	   -282.653071	      0.043591	      0.163155	      0.412893	      0.101255	      0.405226	      0.096318	      0.146959	      0.103833	      0.040666	      0.102529	      0.034095	      0.070446
      0.710497	     -7.831904	    -44.982821	     84.592714	   -282.706765	      0.043517	      0.163128	      0.412151	      0.101233	      0.404459	      0.096296	      0.146800	      0.103891	      0.040602	      0.102586	      0.034079	      0.070471
      0.711615	     -7.881888	    -44.359491	     84.276223	   -282.996178	      0.043148	      0.162995	      0.408519	      0.101127	      0.400702	      0.096191	      0.146014	      0.104182	      0.040281	      0.102869	      0.033997	      0.070594
      0.712147	     -7.905369	    -44.060576	     84.125883	   -283.144607	      0.042975	      0.162932	      0.406841	      0.101077	      0.398966	      0.096141	      0.145647	      0.104319	      0.040131	      0.103004	      0.033959	      0.070649
      0.712849	     -7.936174	    -43.665378	     83.926960	   -283.340262	      0.042749	      0.162848	      0.404665	      0.101011	      0.396715	      0.096076	      0.145167	      0.104501	      0.039934	      0.103181	      0.033909	      0.070728
      0.713551	     -7.966701	    -43.267454	     83.727899	   -283.545738	      0.042525	      0.162765	      0.402536	      0.100946	      0.394513	      0.096011	      0.144693	      0.104683	      0.039739	      0.103359	      0.033859	      0.070799
      0.714101	     -7.990401	    -42.958256	     83.571987	   -283.697899	      0.042351	      0.162700	      0.400903	      0.100895	      0.392824	      0.095960	      0.144327	      0.104825	      0.039587	      0.103498	      0.033821	      0.070864
      0.714651	     -8.013930	    -42.647600	     83.415990	   -283.855173	      0.042178	      0.162635	      0.399298	      0.100845	      0.391163	      0.095910	      0.143965	      0.104967	      0.039438	      0.103636	      0.033783	      0.070920
      0.715200	     -8.037289	    -42.339005	     83.259908	   -284.004656	      0.042007	      0.162570	      0.397721	      0.100794	      0.389531	      0.095859	      0.143607	      0.105109	      0.039289	      0.103775	      0.033745	      0.070981
      0.715971	     -8.069764	    -41.906475	     83.040875	   -284.213053	      0.041770	      0.162479	      0.395554	      0.100723	      0.387289	      0.095788	      0.143110	      0.105308	      0.039082	      0.103970	      0.033692	      0.071061
      0.716534	     -8.093245	    -41.593677	     82.880990	   -284.354894	      0.041599	      0.162413	      0.394005	      0.100672	      0.385686	      0.095737	      0.142753	      0.105453	      0.038933	      0.104111	      0.033654	      0.071127
      0.717096	     -8.116549	    -41.280235	     82.721025	   -284.498983	      0.041428	      0.162347	      0.392484	      0.100620	      0.384111	      0.095685	      0.142399	      0.105598	      0.038785	      0.104253	      0.033616	      0.071184
      0.717659	     -8.139678	    -40.969448	     82.560982	   -284.633298	      0.041260	      0.162281	      0.390988	      0.100568	      0.382563	      0.095634	      0.142050	      0.105743	      0.038638	      0.104395	      0.033579	      0.071246
      0.718409	     -8.170276	    -40.555342	     82.347262	   -284.809999	      0.041037	      0.162193	      0.389033	      0.100500	      0.380539	      0.095565	      0.141589	      0.105936	      0.038444	      0.104584	      0.033529	      0.071324
      0.718975	     -8.193138	    -40.246308	     82.186052	   -284.931715	      0.040870	      0.162126	      0.387588	      0.100448	      0.379043	      0.095513	      0.141245	      0.106081	      0.038299	      0.104726	      0.033492	      0.071390
      0.719541	     -8.215826	    -39.936769	     82.024774	   -285.055313	      0.040705	      0.162060	      0.386167	      0.100396	      0.377572	      0.095462	      0.140906	      0.106227	      0.038155	      0.104868	      0.033455	      0.071447
      0.720107	     -8.238340	    -39.630065	     81.863429	   -285.168698	      0.040542	      0.161994	      0.384773	      0.100344	      0.376129	      0.095410	      0.140566	      0.106372	      0.038013	      0.105010	      0.033418	      0.071509
      0.720856	     -8.267882	    -39.224509	     81.649702	   -285.317305	      0.040327	      0.161907	      0.383005	      0.100275	      0.374342	      0.095341	      0.140010	      0.106565	      0.037826	      0.105198	      0.033340	      0.071587
      0.721424	     -8.290061	    -38.919666	     81.487715	   -285.422239	      0.040166	      0.161841	      0.381707	      0.100223	      0.373044	      0.095289	      0.139556	      0.106711	      0.037686	      0.105341	      0.033272	      0.071653
      0.721991	     -8.312066	    -38.613317	     81.325669	   -285.533796	      0.040006	      0.161775	      0.380431	      0.100171	      0.371767	      0.095237	      0.139106	      0.106858	      0.037546	      0.105483	      0.033205	      0.071710
      0.722559	     -8.333898	    -38.308783	     81.163560	   -285.640016	      0.039848	      0.161709	      0.379177	      0.100118	      0.370512	      0.095184	      0.138662	      0.107004	      0.037409	      0.105625	      0.033137	      0.071773
      0.723299	     -8.362093	    -37.910811	     80.952179	   -285.784082	      0.039644	      0.161623	      0.377573	      0.100050	      0.368907	      0.095116	      0.138090	      0.107195	      0.037230	      0.105810	      0.033051	      0.071849
      0.723870	     -8.383642	    -37.605671	     80.789050	   -285.889948	      0.039488	      0.161557	      0.376360	      0.099997	      0.367693	      0.095063	      0.137654	      0.107342	      0.037094	      0.105953	      0.032985	      0.071915
      0.724440	     -8.405016	    -37.298728	     80.625860	   -286.003513	      0.039333	      0.161491	      0.375167	      0.099945	      0.366498	      0.095011	      0.137223	      0.107489	      0.036959	      0.106095	      0.032919	      0.071972
      0.725011	     -8.426215	    -36.993390	     80.462605	   -286.112488	      0.039179	      0.161425	      0.373994	      0.099892	      0.365324	      0.094958	      0.136797	      0.107635	      0.036826	      0.106238	      0.032854	      0.072035
      0.725753	     -8.453500	    -36.595272	     80.250386	   -286.260774	      0.038982	      0.161340	      0.372498	      0.099823	      0.363826	      0.094889	      0.136250	      0.107826	      0.036653	      0.106423	      0.032770	      0.072111
      0.726327	     -8.474436	    -36.288449	     80.085895	   -286.371194	      0.038830	      0.161274	      0.371362	      0.099770	      0.362688	      0.094836	      0.135832	      0.107973	      0.036521	      0.106566	      0.032706	      0.072178
      0.726902	     -8.495196	    -35.979607	     79.921338	   -286.489988	      0.038680	      0.161208	      0.370245	      0.099717	      0.361569	      0.094783	      0.135418	      0.108120	      0.036390	      0.106709	      0.032642	      0.072235
      0.727476	     -8.515778	    -35.672188	     79.756714	   -286.604814	      0.038531	      0.161142	      0.369146	      0.099663	      0.360468	      0.094729	      0.135009	      0.108267	      0.036260	      0.106852	      0.032578	      0.072298
      0.728219	     -8.542121	    -35.273124	     79.543815	   -286.760882	      0.038340	      0.161057	      0.367753	      0.099594	      0.359072	      0.094660	      0.134487	      0.108457	      0.036094	      0.107037	      0.032497	      0.072374
